<svg height="367pt" viewBox="0 0 367 367.99" width="367pt" xmlns="http://www.w3.org/2000/svg"><path d="m8.484375 183.988281 176 176 176-176-176-176zm256 0-80 80-80-80 80-80zm0 0" fill="#cce4ff"/><path d="m367.867188 180.933594c-.40625-.984375-.988282-1.863282-1.734376-2.609375l-175.984374-175.980469c-.734376-.746094-1.625-1.328125-2.609376-1.738281-1.949218-.808594-4.15625-.808594-6.109374 0-.984376.410156-1.863282.992187-2.609376 1.738281l-175.984374 175.980469c-.742188.738281-1.328126 1.625-1.734376 2.609375-.808593 1.953125-.808593 4.160156 0 6.113281.40625.984375.992188 1.863281 1.734376 2.605469l175.984374 175.984375c.738282.746093 1.625 1.328125 2.609376 1.738281.976562.398438 2.015624.613281 3.054687.613281s2.082031-.214843 3.054687-.613281c.984376-.410156 1.867188-.992188 2.609376-1.738281l175.984374-175.984375c.746094-.734375 1.328126-1.621094 1.734376-2.605469.808593-1.953125.808593-4.160156 0-6.113281zm-183.382813 71.746094-68.6875-68.691407 68.6875-68.6875 68.6875 68.6875zm-8-152-75.3125 75.308593h-73.375l148.6875-148.6875zm-75.3125 91.308593 75.3125 75.3125v73.378907l-148.6875-148.691407zm91.3125 75.3125 75.3125-75.3125h73.375l-148.6875 148.691407zm75.3125-91.3125-75.3125-75.308593v-73.378907l148.6875 148.6875zm0 0" fill="#007aff"/></svg>